<?xml version="1.0" encoding="utf-8"?>
<!-- Generator: Adobe Illustrator 26.0.2, SVG Export Plug-In . SVG Version: 6.00 Build 0)  -->
<svg version="1.1" id="Layer_1" xmlns="http://www.w3.org/2000/svg" xmlns:xlink="http://www.w3.org/1999/xlink" x="0px" y="0px"
	 viewBox="0 0 64 64" style="enable-background:new 0 0 64 64;" xml:space="preserve">
<style type="text/css">
	.st0{fill:#0B6399;}
	.st1{fill:#FFFFFF;}
</style>
<rect class="st0" width="64" height="64"/>
<path class="st1" d="M34.6,32l6.2-6.2c0.8-0.8,0.8-2,0-2.6c-0.6-0.6-1.8-0.8-2.6,0L32,29.4L25.6,23c-0.6-0.8-2-0.6-2.6,0
	s-0.8,1.8,0,2.6l6.4,6.4L23,38.4c-0.8,0.6-0.6,2,0,2.6s1.8,0.8,2.6,0l6.4-6.4l6.2,6.2c0.8,0.8,2,0.8,2.6,0c0.6-0.6,0.8-1.8,0-2.6
	L34.6,32z"/>
</svg>
