<?xml version="1.0" encoding="UTF-8" standalone="no"?>
<!-- Generator: Adobe Illustrator 25.4.1, SVG Export Plug-In . SVG Version: 6.00 Build 0)  -->

<svg
   version="1.1"
   id="Layer_1"
   x="0px"
   y="0px"
   viewBox="0 0 32 32"
   style="enable-background:new 0 0 32 32;"
   xml:space="preserve"
   sodipodi:docname="close-backdrop.svg"
   inkscape:version="1.1.1 (3bf5ae0d25, 2021-09-20)"
   xmlns:inkscape="http://www.inkscape.org/namespaces/inkscape"
   xmlns:sodipodi="http://sodipodi.sourceforge.net/DTD/sodipodi-0.dtd"
   xmlns="http://www.w3.org/2000/svg"
   xmlns:svg="http://www.w3.org/2000/svg"><defs
   id="defs9" /><sodipodi:namedview
   id="namedview7"
   pagecolor="#ffffff"
   bordercolor="#666666"
   borderopacity="1.0"
   inkscape:pageshadow="2"
   inkscape:pageopacity="0.0"
   inkscape:pagecheckerboard="0"
   showgrid="false"
   inkscape:zoom="25.0625"
   inkscape:cx="16.01995"
   inkscape:cy="16.01995"
   inkscape:window-width="1920"
   inkscape:window-height="991"
   inkscape:window-x="-9"
   inkscape:window-y="-9"
   inkscape:window-maximized="1"
   inkscape:current-layer="Layer_1" />
<style
   type="text/css"
   id="style2">
	.st0{fill:#E4E4E4;}
</style>
<path
   class="st0"
   d="M17.3,16l3.1-3.1c0.4-0.4,0.4-1,0-1.3c-0.3-0.3-0.9-0.4-1.3,0L16,14.7l-3.2-3.2c-0.3-0.4-1-0.3-1.3,0  c-0.3,0.3-0.4,0.9,0,1.3l3.2,3.2l-3.2,3.2c-0.4,0.3-0.3,1,0,1.3s0.9,0.4,1.3,0l3.2-3.2l3.1,3.1c0.4,0.4,1,0.4,1.3,0  c0.3-0.3,0.4-0.9,0-1.3L17.3,16z"
   id="path4"
   style="fill:#929595;fill-opacity:1" />
</svg>
