<?xml version="1.0" encoding="utf-8"?>
<!-- Generator: Adobe Illustrator 26.0.2, SVG Export Plug-In . SVG Version: 6.00 Build 0)  -->
<svg version="1.1"
	 id="Layer_1" inkscape:version="1.1.1 (3bf5ae0d25, 2021-09-20)" sodipodi:docname="close-backdrop.svg" xmlns:inkscape="http://www.inkscape.org/namespaces/inkscape" xmlns:sodipodi="http://sodipodi.sourceforge.net/DTD/sodipodi-0.dtd" xmlns:svg="http://www.w3.org/2000/svg"
	 xmlns="http://www.w3.org/2000/svg" xmlns:xlink="http://www.w3.org/1999/xlink" x="0px" y="0px" viewBox="0 0 64 64"
	 style="enable-background:new 0 0 64 64;" xml:space="preserve">
<style type="text/css">
	.st0{fill:#929595;}
</style>
<sodipodi:namedview  bordercolor="#666666" borderopacity="1.0" id="namedview7" inkscape:current-layer="Layer_1" inkscape:cx="16.01995" inkscape:cy="16.01995" inkscape:pagecheckerboard="0" inkscape:pageopacity="0.0" inkscape:pageshadow="2" inkscape:window-height="991" inkscape:window-maximized="1" inkscape:window-width="1920" inkscape:window-x="-9" inkscape:window-y="-9" inkscape:zoom="25.0625" pagecolor="#ffffff" showgrid="false">
	</sodipodi:namedview>
<path id="path4" class="st0" d="M34.7,32l6.2-6.2c0.8-0.8,0.8-2,0-2.6c-0.6-0.6-1.8-0.8-2.6,0l-6.2,6.2L25.7,23
	c-0.6-0.8-2-0.6-2.6,0c-0.6,0.6-0.8,1.8,0,2.6l6.4,6.4l-6.4,6.4c-0.8,0.6-0.6,2,0,2.6c0.6,0.6,1.8,0.8,2.6,0l6.4-6.4l6.2,6.2
	c0.8,0.8,2,0.8,2.6,0c0.6-0.6,0.8-1.8,0-2.6L34.7,32z"/>
</svg>
