<?xml version="1.0" encoding="utf-8"?>
<!-- Generator: Adobe Illustrator 25.4.1, SVG Export Plug-In . SVG Version: 6.00 Build 0)  -->
<svg version="1.1" id="Layer_1" xmlns="http://www.w3.org/2000/svg" xmlns:xlink="http://www.w3.org/1999/xlink" x="0px" y="0px"
	 viewBox="0 0 32 32" style="enable-background:new 0 0 32 32;" xml:space="preserve">
<style type="text/css">
	.st0{fill:#A2A2A2;}
	.st1{fill:#E4E4E4;}
</style>
<rect y="0" class="st0" width="32" height="32"/>
<path class="st1" d="M17.3,16l3.1-3.1c0.4-0.4,0.4-1,0-1.3c-0.3-0.3-0.9-0.4-1.3,0L16,14.7l-3.2-3.2c-0.3-0.4-1-0.3-1.3,0
	s-0.4,0.9,0,1.3l3.2,3.2l-3.2,3.2c-0.4,0.3-0.3,1,0,1.3s0.9,0.4,1.3,0l3.2-3.2l3.1,3.1c0.4,0.4,1,0.4,1.3,0c0.3-0.3,0.4-0.9,0-1.3
	L17.3,16z"/>
</svg>
